<svg id="Capa_1" fill="rgba(0,0,0,0.4)" enable-background="new 0 0 551.13 551.13" height="252" viewBox="0 0 551.13 551.13" width="512" xmlns="http://www.w3.org/2000/svg"><path d="m275.565 0c-151.944 0-275.565 123.621-275.565 275.565s123.621 275.565 275.565 275.565 275.565-123.621 275.565-275.565-123.621-275.565-275.565-275.565zm0 516.685c-132.955 0-241.119-108.164-241.119-241.119s108.164-241.12 241.119-241.12 241.12 108.164 241.12 241.119-108.165 241.12-241.12 241.12z"/><path d="m258.342 413.348h34.446v34.446h-34.446z"/><path d="m275.565 103.337c-56.983 0-103.337 46.353-103.337 103.337v34.446h34.446v-34.446c0-37.995 30.897-68.891 68.891-68.891 37.995 0 68.891 30.897 68.891 68.891 0 25.851-13.775 50.188-35.943 63.492l-41.813 25.077c-5.18 3.112-8.359 8.712-8.359 14.767v68.891h34.446v-59.136l33.453-20.065c32.478-19.51 52.661-55.15 52.661-93.027.001-56.983-46.353-103.336-103.336-103.336z"/></svg>